<svg width="84" height="44" fill="none" xmlns="http://www.w3.org/2000/svg"><path d="M3.042 37.588h1.925c.302 0 .455-.024.594-.081.326-.134.575-.42.575-.821 0-.397-.24-.688-.575-.826-.139-.058-.287-.086-.598-.086H3.042v1.814zm0 3.968H1.897v-6.847h3.21c.53 0 .88.09 1.178.263.594.32.982.935.982 1.709 0 .754-.388 1.38-.987 1.704-.297.167-.642.263-1.174.263H3.042v2.907zm8.527-6.847h1.28l1.867 3.51 1.81-3.51h1.28l-2.64 4.951c-.325.611-.536.974-.843 1.294-.354.363-.785.616-1.36.616-.407 0-.805-.13-1.15-.368l.585-.97a.99.99 0 00.58.192c.402 0 .646-.239.957-.797a7.4 7.4 0 01.159-.292l-2.525-4.626zm10.89 0h.617l2.975 3.566 2.97-3.566h.622v6.846h-1.15v-4.674l-2.442 2.975-2.448-2.975v4.675h-1.145v-6.847zm12.076-.005h5.806v1.07h-2.333v5.782h-1.15v-5.782h-2.323v-1.07zm15.473 6.852v-4.78l-4.158 4.78h-.622v-6.847h1.15v4.774c1.384-1.59 2.768-3.184 4.157-4.774h.623v6.846h-1.15zm11.78-2.034c0 .802-.402 1.437-1.015 1.77-.302.168-.662.264-1.198.264h-3.147v-6.847h4.737v1.065h-3.592v1.718h2.002c.536 0 .896.096 1.193.268.618.33 1.02.983 1.02 1.762zm-1.135 0c0-.43-.259-.74-.604-.888-.143-.058-.302-.086-.608-.086h-1.868v1.947h1.863c.316 0 .474-.028.613-.09a.936.936 0 00.604-.883zm6.089-4.813h4.69v1.06h-3.54v1.504h2.745v1.05h-2.745v2.172h3.54v1.06h-4.69V34.71zm9.347-.005h5.805v1.07h-2.333v5.782h-1.15v-5.782H76.09v-1.07z" fill="#fff"/><mask id="a" style="mask-type:luminance" maskUnits="userSpaceOnUse" x="0" y="0" width="84" height="30"><path d="M84 0H0v29.333h84V0z" fill="#fff"/></mask><g mask="url(#a)"><path d="M.094 17.059c.15-.036 15.121-3.593 26.394-8.576 1.253-.555 2.269-.883 3.124-1.038-.958.962-6.595 3.361-2.093 3.786 4.13.39-2.674 5.275-5.793 7.052-8.204 2.592-13.53 3.61-13.625 3.629l.113.6c.028-.006.505-.097 1.368-.287 4.523-.998 19.704-4.734 37.122-13.271 2.443-1.198 4.436-1.862 6.114-2.108-.492 2.515-6.187 8.077 2.908 9.482 8.296 1.28-8.34 4.533-14.54 6.189-.894.239-1.571.444-1.925.606-2.737 1.251 29.084.126 43.314.069.464.016.938.025 1.425.025v-.61c-12.71 0-17.212-5.793-20.83-10.448-3.758-4.837-6.727-8.659-16.736-3.753a173.328 173.328 0 01-7.051 3.26c-2.099-.744-3.37-1.815-4.483-2.754-2.073-1.75-3.572-3.015-8.578-.801C15.085 13.078.15 16.627 0 16.663l.094.396z" fill="#FDFDFD"/></g></svg>