<svg width="44" height="20" fill="none" xmlns="http://www.w3.org/2000/svg"><rect width="44" height="20" rx="4" fill="#fff"/><path d="M10.78 14V8.132h1.464v.912c.2-.336.468-.592.804-.768a2.492 2.492 0 011.152-.264c1.384 0 2.076.804 2.076 2.412V14h-1.5v-3.504c0-.456-.088-.788-.264-.996-.168-.208-.432-.312-.792-.312-.44 0-.792.14-1.056.42-.256.272-.384.636-.384 1.092V14h-1.5zm9.912.12c-.665 0-1.236-.124-1.716-.372s-.852-.6-1.116-1.056c-.256-.456-.384-.996-.384-1.62 0-.608.123-1.14.372-1.596a2.79 2.79 0 011.044-1.068 2.945 2.945 0 011.524-.396c.831 0 1.488.264 1.968.792.488.528.732 1.248.732 2.16v.444h-4.2c.111 1.048.712 1.572 1.8 1.572.328 0 .655-.048.983-.144.328-.104.628-.264.9-.48l.42 1.008c-.28.232-.631.416-1.055.552a4.144 4.144 0 01-1.272.204zm-.216-5.088c-.44 0-.796.136-1.069.408-.271.272-.436.64-.491 1.104h2.951c-.032-.488-.168-.86-.408-1.116-.232-.264-.56-.396-.983-.396zM25.83 14l-2.316-5.868h1.536l1.5 4.128 1.512-4.128h1.056l1.512 4.152 1.5-4.152h1.452L31.278 14H29.97l-1.428-3.78L27.138 14H25.83z" fill="#1A3E3E"/></svg>